<?xml version="1.0" standalone="no"?>
<!DOCTYPE svg PUBLIC "-//W3C//DTD SVG 20010904//EN"
 "http://www.w3.org/TR/2001/REC-SVG-20010904/DTD/svg10.dtd">
<svg version="1.0" xmlns="http://www.w3.org/2000/svg"
 width="496.000000pt" height="496.000000pt" viewBox="0 0 496.000000 496.000000"
 preserveAspectRatio="xMidYMid meet">

<g transform="translate(0.000000,496.000000) scale(0.100000,-0.100000)"
fill="#000000" stroke="none">
<path d="M0 2480 l0 -2480 2480 0 2480 0 0 2480 0 2480 -2480 0 -2480 0 0
-2480z m1815 1679 c173 -173 171 -147 15 -231 -166 -89 -313 -198 -432 -321
-57 -59 -177 -216 -202 -264 -9 -18 -26 -35 -39 -38 -12 -3 -114 -4 -227 -3
-187 3 -205 5 -208 21 -8 41 171 344 279 472 73 86 221 228 304 291 74 56 200
140 235 157 8 4 38 21 65 37 28 16 52 29 55 29 3 1 73 -67 155 -150z m1547
121 c49 -23 56 -28 153 -89 151 -96 329 -250 441 -381 102 -120 249 -356 289
-466 10 -27 22 -54 26 -60 10 -12 72 -199 88 -264 48 -193 65 -523 37 -715
-41 -276 -140 -556 -258 -732 -15 -23 -28 -45 -28 -48 0 -14 -120 -172 -182
-240 -76 -83 -197 -199 -253 -240 -22 -17 -42 -32 -45 -36 -17 -19 -234 -150
-310 -186 -94 -45 -302 -123 -328 -123 -10 0 -51 -9 -92 -19 -41 -10 -110 -22
-153 -26 l-77 -7 2 213 3 213 85 18 c138 30 198 47 265 77 11 5 40 17 65 26
50 18 175 89 261 147 285 192 518 538 599 888 19 82 40 263 40 341 0 88 -12
196 -37 317 l-16 83 156 157 c86 87 157 161 157 165 0 4 -98 7 -217 7 -120 0
-223 4 -230 8 -6 4 -35 43 -63 87 -78 120 -160 212 -285 320 -118 103 -232
172 -397 243 -27 12 -48 26 -48 32 0 14 37 57 169 193 63 64 120 117 127 117
7 0 32 -9 56 -20z m-549 -659 c106 -36 171 -70 282 -143 85 -57 195 -153 195
-170 0 -4 -139 -8 -310 -8 l-310 0 0 175 0 175 30 0 c17 0 67 -13 113 -29z
m-513 -151 l0 -170 -310 0 c-176 0 -310 4 -310 9 0 5 28 35 63 66 150 139 390
262 515 264 l42 1 0 -170z m-1286 -549 c3 -5 -2 -47 -11 -93 -26 -128 -23
-401 5 -539 70 -339 225 -613 478 -841 32 -29 61 -55 64 -58 3 -3 38 -28 78
-55 41 -27 76 -54 79 -58 7 -11 -287 -307 -303 -307 -17 0 -146 101 -228 178
-84 79 -202 210 -250 277 -183 259 -284 504 -348 840 -27 142 -14 603 19 658
6 10 411 9 417 -2z m1284 -530 l2 -534 -140 -141 -140 -141 -62 33 c-177 91
-352 271 -449 460 -124 242 -151 510 -80 803 4 20 12 42 15 48 5 8 124 10 429
9 l422 -3 3 -534z m1062 531 c0 -4 -154 -160 -342 -347 l-343 -340 -3 335 c-1
184 0 341 3 347 3 10 81 13 345 13 187 0 340 -3 340 -8z m217 -429 c-16 -272
-131 -518 -331 -711 -72 -69 -193 -162 -211 -162 -4 0 -19 -8 -33 -18 -47 -31
-272 -112 -313 -112 -17 0 -19 9 -19 107 l0 108 447 447 c247 247 452 448 457
448 5 0 6 -46 3 -107z m-1446 -1385 c19 -6 63 -16 99 -22 l65 -11 3 -209 c1
-138 -1 -212 -8 -216 -23 -14 -260 33 -415 82 -120 38 -122 39 -99 71 23 31
308 317 315 317 4 0 21 -5 40 -12z"/>
</g>
</svg>
